# Blender v2.79 (sub 0) OBJ File: ''
# www.blender.org
o Mesh384_Mesh384_Painting3
v -157.346802 656.156921 -514.798157
v -157.346802 591.011230 -514.798157
v -111.506699 591.011230 -514.798157
v -111.506699 656.156921 -514.798157
v 249.425003 480.862213 -454.721222
v 249.425003 410.909454 -454.721283
v 249.425003 410.909454 -405.498566
v 249.425003 480.862213 -405.498505
vt 0.000097 0.996547
vt 0.000097 0.000097
vt 0.999903 0.000097
vt 0.999903 0.996547
vt 0.000097 0.996547
vt 0.000097 0.000097
vt 0.999903 0.000097
vt 0.999903 0.996547
vn 0.0000 0.0000 1.0000
vn -1.0000 -0.0000 0.0000
s 1
f 1/1/1 2/2/1 3/3/1
f 4/4/1 1/1/1 3/3/1
f 5/5/2 6/6/2 7/7/2
f 8/8/2 5/5/2 7/7/2
