# Blender v2.79 (sub 0) OBJ File: ''
# www.blender.org
o Mesh384_Mesh384_Painting1
v -8.692000 566.294617 -514.798157
v -8.692000 501.148987 -514.798279
v 37.148102 501.148987 -514.798279
v 37.148102 566.294617 -514.798157
v 248.287018 330.975342 -135.265182
v 248.287018 261.241943 -135.265213
v 248.287018 261.241882 -86.196907
v 248.287018 330.975281 -86.196892
vt 0.000097 0.996547
vt 0.000097 0.000097
vt 0.999903 0.000097
vt 0.999903 0.996547
vt 0.000097 0.996547
vt 0.000097 0.000097
vt 0.999903 0.000097
vt 0.999903 0.996547
vn 0.0000 -0.0000 1.0000
vn -1.0000 0.0000 0.0000
s 1
f 1/1/1 2/2/1 3/3/1
f 4/4/1 1/1/1 3/3/1
f 5/5/2 6/6/2 7/7/2
f 8/8/2 5/5/2 7/7/2
