# Blender v2.79 (sub 0) OBJ File: ''
# www.blender.org
o Mesh384_Mesh384_WhitePlastic
v -71.634399 128.409821 -389.635345
v -71.634399 134.304031 -389.635345
v -72.642303 134.304031 -389.464935
v -70.517502 134.522324 -390.908447
v -70.263603 134.522324 -392.017029
v -71.149597 134.522324 -392.042542
v -70.453201 134.522324 -393.138336
v -71.217796 134.522324 -393.418549
v -70.661697 128.409821 -393.881653
v -70.661697 134.304031 -393.881653
v -70.118599 134.304031 -393.015717
v -71.126701 134.522324 -394.212128
v -71.494797 134.522324 -394.473724
v -73.836395 134.522324 -393.494141
v -73.499001 134.522324 -394.531555
v -73.976700 134.522324 -394.231964
v -72.491196 128.409821 -394.702026
v -72.491196 134.522324 -394.702026
v -71.494797 134.522324 -394.473724
v -73.499001 128.409821 -394.531555
v -73.499001 134.522324 -394.531555
v -75.185303 128.409821 -392.159058
v -75.185303 134.304031 -392.159058
v -74.957001 134.304031 -393.155334
v -74.364899 134.304031 -393.988434
v -73.976700 134.522324 -394.231964
v -73.983902 134.522324 -392.124329
v -74.682999 134.522324 -393.238159
v -73.915604 134.522324 -390.748352
v -74.724197 134.522324 -391.044617
v -74.254898 134.522324 -390.350433
v -71.548203 134.522324 -389.900330
v -71.297005 134.522324 -390.672729
v -72.610100 134.522324 -390.580322
v -74.471703 128.409821 -390.285248
v -73.638603 128.409821 -389.693115
v -73.638603 134.304031 -389.693115
v -73.709297 134.522324 -389.962646
v -74.957001 128.409821 -393.155334
v -74.931900 134.522324 -392.151642
v -75.014801 128.409821 -391.151123
v -75.014801 134.304031 -391.151123
v -75.014801 128.409821 -391.151123
v -74.471703 134.304031 -390.285248
v -72.523300 134.522324 -393.586548
v -72.491196 134.522324 -394.702026
v -72.566696 134.522324 -392.083435
v -72.642303 128.409821 -389.464935
v -70.176399 128.409821 -391.011536
v -70.176399 134.304031 -391.011536
v -70.768501 134.304031 -390.178436
v -71.126701 134.522324 -394.212128
v -70.894203 134.493027 -394.046844
v -70.118599 128.409821 -393.015717
v -69.948204 134.304031 -392.007843
v -69.948204 128.409821 -392.007843
v -70.768501 128.409821 -390.178436
v -74.865799 134.493027 -391.075836
v -74.842400 134.493027 -391.054626
v -74.948799 134.413132 -391.093658
v -74.842400 134.493027 -391.054626
v -74.865799 134.493027 -391.075836
v -75.014801 134.304031 -391.151123
v -74.972198 134.413132 -391.114838
v -69.990402 134.413132 -392.009155
v -70.222099 134.413132 -390.997742
v -69.990402 134.413132 -392.009155
v -70.105896 134.493027 -392.012451
v -70.347000 134.493027 -390.960022
v -73.648102 134.413132 -389.729248
v -74.442703 134.413132 -390.294037
v -73.673996 134.493027 -389.827942
v -74.363297 134.493027 -390.317841
v -74.920303 134.413132 -393.166443
v -74.312904 134.413132 -394.021057
v -74.820000 134.493027 -393.196747
v -74.170799 134.493027 -394.110229
v -70.797005 134.413132 -390.188843
v -71.622902 134.413132 -389.670837
v -70.874901 134.493027 -390.217255
v -71.591301 134.493027 -389.767853
v -70.981201 134.522324 -390.255951
v -74.972198 134.413132 -391.114838
v -75.151299 134.413132 -392.158051
v -74.972198 134.413132 -391.114838
v -75.058594 134.493027 -392.155334
v -70.163399 134.413132 -393.032135
v -70.285896 134.493027 -393.077057
v -75.151299 134.413132 -392.158051
v -72.635002 134.522324 -389.716553
v -72.638603 134.493027 -389.590759
v -72.641304 134.413132 -389.498657
v -72.641304 134.413132 -389.498657
v -74.363297 134.493027 -390.317841
v -70.723999 134.413132 -393.925934
v -70.894203 134.493027 -394.046844
v -71.494797 128.409821 -394.473724
v -74.170799 134.493027 -394.110229
v -74.364899 128.409821 -393.988434
v -75.014801 134.304031 -391.151123
v -74.170799 134.493027 -394.110229
v -72.067200 127.245522 -391.554260
v -71.567703 127.973228 -391.025146
v -72.048798 127.973228 -390.723328
v -71.902695 127.245522 -391.785736
v -71.238800 127.973228 -391.487946
v -71.839302 127.245522 -392.062439
v -71.112000 127.973228 -392.041443
v -71.886703 127.245522 -392.342438
v -71.206596 127.973228 -392.601318
v -72.037498 127.245522 -392.582916
v -71.508400 127.973228 -393.082428
v -72.268997 127.245522 -392.747437
v -71.971199 127.973228 -393.411346
v -72.545700 127.245522 -392.810822
v -72.524704 127.973228 -393.538239
v -72.825699 127.245522 -392.763428
v -73.084602 127.973228 -393.443542
v -73.066200 127.245522 -392.612640
v -73.565697 127.973228 -393.141724
v -73.230705 127.245522 -392.381134
v -73.894699 127.973228 -392.678925
v -73.294098 127.245522 -392.104431
v -74.021500 127.973228 -392.125458
v -73.246696 127.245522 -391.824432
v -73.926804 127.973228 -391.565552
v -73.095901 127.245522 -391.583923
v -73.625099 127.973228 -391.084442
v -72.864502 127.245522 -391.419434
v -73.162201 127.973228 -390.755554
v -72.587700 127.245522 -391.356049
v -72.608696 127.973228 -390.628632
v -72.307701 127.245522 -391.403442
v -70.768501 128.409821 -390.178436
v -71.634399 128.409821 -389.635345
v -70.176399 128.409821 -391.011536
v -69.948204 128.409821 -392.007843
v -70.118599 128.409821 -393.015717
v -70.661697 128.409821 -393.881653
v -71.494797 128.409821 -394.473724
v -72.491196 128.409821 -394.702026
v -73.499001 128.409821 -394.531555
v -74.364899 128.409821 -393.988434
v -74.957001 128.409821 -393.155334
v -75.185303 128.409821 -392.159058
v -75.014801 128.409821 -391.151123
v -72.642303 128.409821 -389.464935
v -73.638603 128.409821 -389.693115
v -74.471703 128.409821 -390.285248
v -75.014801 128.409821 -391.151123
v -72.067200 124.334824 -391.554260
v -72.067200 127.245522 -391.554260
v -72.307701 127.245522 -391.403442
v -71.902695 124.334824 -391.785736
v -71.902695 127.245522 -391.785736
v -71.839302 124.334824 -392.062439
v -71.839302 127.245522 -392.062439
v -71.886703 124.334824 -392.342438
v -71.886703 127.245522 -392.342438
v -72.037498 124.334824 -392.582916
v -72.037498 127.245522 -392.582916
v -72.268997 124.334824 -392.747437
v -72.268997 127.245522 -392.747437
v -72.545700 124.334824 -392.810822
v -72.545700 127.245522 -392.810822
v -72.825699 124.334824 -392.763428
v -72.825699 127.245522 -392.763428
v -73.066200 124.334824 -392.612640
v -73.066200 127.245522 -392.612640
v -73.230705 124.334824 -392.381134
v -73.230705 127.245522 -392.381134
v -73.294098 124.334824 -392.104431
v -73.294098 127.245522 -392.104431
v -73.246696 124.334824 -391.824432
v -73.246696 127.245522 -391.824432
v -73.095901 124.334824 -391.583923
v -73.095901 127.245522 -391.583923
v -72.864502 124.334824 -391.419434
v -72.864502 127.245522 -391.419434
v -72.587700 124.334824 -391.356049
v -72.587700 127.245522 -391.356049
v -72.307701 124.334824 -391.403442
vt 0.000000 0.000000
vt 0.000000 0.000000
vt 0.000000 0.000000
vt 0.000000 0.000000
vt 0.000000 0.000000
vt 0.000000 0.000000
vt 0.000000 0.000000
vt 0.000000 0.000000
vt 0.000000 0.000000
vt 0.000000 0.000000
vt 0.000000 0.000000
vt 0.000000 0.000000
vt 0.000000 0.000000
vt 0.000000 0.000000
vt 0.000000 0.000000
vt 0.000000 0.000000
vt 0.000000 0.000000
vt 0.000000 0.000000
vt 0.000000 0.000000
vt 0.000000 0.000000
vt 0.000000 0.000000
vt 0.000000 0.000000
vt 0.000000 0.000000
vt 0.000000 0.000000
vt 0.000000 0.000000
vt 0.000000 0.000000
vt 0.000000 0.000000
vt 0.000000 0.000000
vt 0.000000 0.000000
vt 0.000000 0.000000
vt 0.000000 0.000000
vt 0.000000 0.000000
vt 0.000000 0.000000
vt 0.000000 0.000000
vt 0.000000 0.000000
vt 0.000000 0.000000
vt 0.000000 0.000000
vt 0.000000 0.000000
vt 0.000000 0.000000
vt 0.000000 0.000000
vt 0.000000 0.000000
vt 0.000000 0.000000
vt 0.000000 0.000000
vt 0.000000 0.000000
vt 0.000000 0.000000
vt 0.000000 0.000000
vt 0.000000 0.000000
vt 0.000000 0.000000
vt 0.000000 0.000000
vt 0.000000 0.000000
vt 0.000000 0.000000
vt 0.000000 0.000000
vt 0.000000 0.000000
vt 0.000000 0.000000
vt 0.000000 0.000000
vt 0.000000 0.000000
vt 0.000000 0.000000
vt 0.000000 0.000000
vt 0.000000 0.000000
vt 0.000000 0.000000
vt 0.000000 0.000000
vt 0.000000 0.000000
vt 0.000000 0.000000
vt 0.000000 0.000000
vt 0.000000 0.000000
vt 0.000000 0.000000
vt 0.000000 0.000000
vt 0.000000 0.000000
vt 0.000000 0.000000
vt 0.000000 0.000000
vt 0.000000 0.000000
vt 0.000000 0.000000
vt 0.000000 0.000000
vt 0.000000 0.000000
vt 0.000000 0.000000
vt 0.000000 0.000000
vt 0.000000 0.000000
vt 0.000000 0.000000
vt 0.000000 0.000000
vt 0.000000 0.000000
vt 0.000000 0.000000
vt 0.000000 0.000000
vt 0.000000 0.000000
vt 0.000000 0.000000
vt 0.000000 0.000000
vt 0.000000 0.000000
vt 0.000000 0.000000
vt 0.000000 0.000000
vt 0.000000 0.000000
vt 0.000000 0.000000
vt 0.000000 0.000000
vt 0.000000 0.000000
vt 0.000000 0.000000
vt 0.000000 0.000000
vt 0.000000 0.000000
vt 0.000000 0.000000
vt 0.000000 0.000000
vt 0.000000 0.000000
vt 0.000000 0.000000
vt 0.000000 0.000000
vt 0.000000 0.000000
vt 0.000000 0.000000
vt 0.000000 0.000000
vt 0.000000 0.000000
vt 0.000000 0.000000
vt 0.000000 0.000000
vt 0.000000 0.000000
vt 0.000000 0.000000
vt 0.000000 0.000000
vt 0.000000 0.000000
vt 0.000000 0.000000
vt 0.000000 0.000000
vt 0.000000 0.000000
vt 0.000000 0.000000
vt 0.000000 0.000000
vt 0.000000 0.000000
vt 0.000000 0.000000
vt 0.000000 0.000000
vt 0.000000 0.000000
vt 0.000000 0.000000
vt 0.000000 0.000000
vt 0.000000 0.000000
vt 0.000000 0.000000
vt 0.000000 0.000000
vt 0.000000 0.000000
vt 0.000000 0.000000
vt 0.000000 0.000000
vt 0.000000 0.000000
vt 0.000000 0.000000
vt 0.000000 0.000000
vt 0.000000 0.000000
vt 0.000000 0.000000
vt 0.000000 0.000000
vt 0.000000 0.000000
vt 0.000000 0.000000
vt 0.000000 0.000000
vt 0.000000 0.000000
vt 0.000000 0.000000
vt 0.000000 0.000000
vt 0.000000 0.000000
vt 0.000000 0.000000
vt 0.000000 0.000000
vt 0.000000 0.000000
vt 0.000000 0.000000
vt 0.000000 0.000000
vt 0.000000 0.000000
vt 0.000000 0.000000
vt 0.000000 0.000000
vt 0.000000 0.000000
vt 0.000000 0.000000
vt 0.000000 0.000000
vt 0.000000 0.000000
vt 0.000000 0.000000
vt 0.000000 0.000000
vt 0.000000 0.000000
vt 0.000000 0.000000
vt 0.000000 0.000000
vt 0.000000 0.000000
vt 0.000000 0.000000
vt 0.000000 0.000000
vt 0.000000 0.000000
vt 0.000000 0.000000
vt 0.000000 0.000000
vt 0.000000 0.000000
vt 0.000000 0.000000
vt 0.000000 0.000000
vt 0.000000 0.000000
vt 0.000000 0.000000
vt 0.000000 0.000000
vt 0.000000 0.000000
vt 0.000000 0.000000
vt 0.000000 0.000000
vt 0.000000 0.000000
vt 0.000000 0.000000
vt 0.000000 0.000000
vt 0.000000 0.000000
vt 0.000000 0.000000
vt 0.000000 0.000000
vt 0.000000 0.000000
vt 0.000000 0.000000
vt 0.000000 0.000000
vt 0.000000 0.000000
vn 0.3559 0.0000 0.9345
vn 0.3419 0.1301 0.9307
vn -0.0285 0.1467 0.9888
vn 0.1142 0.9912 0.0662
vn 0.1030 0.9947 0.0030
vn 0.0000 1.0000 -0.0000
vn 0.1182 0.9912 -0.0598
vn 0.7272 0.0000 -0.6865
vn 0.7479 0.0908 -0.6575
vn 0.9277 0.1596 -0.3375
vn 0.0283 0.9994 -0.0178
vn -0.0339 0.9991 -0.0241
vn 0.0288 0.0000 -0.9996
vn 0.4092 -0.0000 -0.9124
vn -0.3559 0.0000 -0.9345
vn -0.9996 0.0000 -0.0289
vn -0.9886 0.1478 -0.0285
vn -0.9097 0.1300 -0.3943
vn -0.7062 0.0704 -0.7045
vn -0.5313 -0.0003 -0.8472
vn -0.1408 0.9867 -0.0816
vn -0.1346 0.9883 0.0716
vn -0.1090 0.9867 0.1207
vn 0.0714 0.9871 0.1430
vn -0.7272 0.0000 0.6864
vn -0.4091 0.0000 0.9125
vn -0.3951 0.1302 0.9094
vn -0.0796 0.9871 0.1391
vn -0.9124 0.0000 -0.4092
vn -0.1276 0.9918 -0.0030
vn -0.9860 0.0000 0.1668
vn -0.9708 0.1738 0.1653
vn -0.8471 0.0000 0.5314
vn -0.7260 0.1198 0.6772
vn -0.0288 0.0000 0.9996
vn 0.9125 0.0000 0.4092
vn 0.9067 0.1597 0.3905
vn 0.6864 0.1206 0.7171
vn 0.5793 -0.0001 -0.8151
vn 0.5792 0.0001 -0.8152
vn 0.9345 0.0000 -0.3559
vn 0.9833 0.1796 0.0284
vn 0.9996 0.0000 0.0288
vn 0.6864 0.0000 0.7272
vn -0.3556 0.9292 0.1006
vn -0.2526 0.9355 0.2471
vn -0.7120 0.3588 0.6035
vn -0.6321 0.6181 0.4674
vn -0.5929 0.4710 0.6532
vn -0.5916 0.0566 0.8043
vn -0.6659 0.1362 0.7335
vn 0.9322 0.3610 0.0268
vn 0.7572 0.5586 0.3387
vn 0.5685 0.8225 0.0164
vn 0.4058 0.9139 0.0117
vn 0.4177 0.8828 0.2148
vn -0.3517 0.4914 0.7968
vn -0.6447 0.4638 0.6076
vn -0.2390 0.8453 0.4778
vn -0.2063 0.9611 0.1836
vn -0.7971 0.4910 -0.3516
vn -0.6642 0.3167 -0.6771
vn -0.4799 0.8434 -0.2416
vn -0.2580 0.9486 -0.1835
vn 0.6107 0.4661 0.6402
vn 0.3050 0.4913 0.8158
vn 0.3683 0.8344 0.4100
vn 0.2111 0.8450 0.4913
vn 0.1033 0.9867 0.1254
vn -0.9362 0.3124 0.1608
vn -0.9543 0.2976 -0.0274
vn -0.6241 0.7734 0.1112
vn -0.4750 0.8799 -0.0127
vn 0.7755 0.5584 -0.2945
vn 0.4295 0.8828 -0.1905
vn -0.6524 0.7576 -0.0181
vn -0.0037 0.9918 0.1275
vn -0.0137 0.8787 0.4772
vn -0.0189 0.7555 0.6548
vn -0.0275 0.2954 0.9550
vn -0.5127 0.6693 0.5377
vn 0.6814 0.3715 -0.6306
vn 0.2865 0.9411 -0.1797
vn 0.4092 0.0000 -0.9125
vn -0.5313 -0.0002 -0.8472
vn -0.6864 0.0000 -0.7272
vn 0.0000 0.0000 1.0000
vn -0.6355 0.6262 -0.4517
vn 0.4854 -0.7071 0.5142
vn 0.3585 -0.8528 0.3797
vn 0.1859 -0.8528 0.4880
vn 0.6453 -0.7070 0.2893
vn 0.4765 -0.8528 0.2137
vn 0.7069 -0.7070 0.0203
vn 0.5220 -0.8528 0.0151
vn 0.6608 -0.7071 -0.2517
vn 0.4880 -0.8528 -0.1858
vn 0.5143 -0.7071 -0.4853
vn 0.3797 -0.8528 -0.3585
vn 0.2894 -0.7071 -0.6452
vn 0.2137 -0.8528 -0.4765
vn 0.0204 -0.7071 -0.7068
vn 0.0151 -0.8528 -0.5219
vn -0.2517 -0.7071 -0.6608
vn -0.1858 -0.8528 -0.4880
vn -0.4854 -0.7070 -0.5142
vn -0.3584 -0.8528 -0.3798
vn -0.6453 -0.7070 -0.2893
vn -0.4764 -0.8529 -0.2137
vn -0.7068 -0.7071 -0.0203
vn -0.5219 -0.8528 -0.0150
vn -0.6608 -0.7071 0.2517
vn -0.4880 -0.8528 0.1858
vn -0.5143 -0.7071 0.4853
vn -0.3797 -0.8528 0.3584
vn -0.2893 -0.7071 0.6452
vn -0.2137 -0.8528 0.4765
vn -0.0204 -0.7071 0.7068
vn -0.0151 -0.8528 0.5219
vn 0.2517 -0.7071 0.6608
vn 0.2410 -0.9363 0.2553
vn 0.1250 -0.9363 0.3281
vn 0.3204 -0.9363 0.1436
vn 0.3510 -0.9363 0.0101
vn 0.3281 -0.9363 -0.1250
vn 0.2553 -0.9363 -0.2410
vn 0.1437 -0.9363 -0.3204
vn 0.0101 -0.9363 -0.3510
vn -0.1250 -0.9363 -0.3281
vn -0.2410 -0.9363 -0.2553
vn -0.3204 -0.9363 -0.1437
vn -0.3510 -0.9363 -0.0101
vn -0.3521 -0.9341 0.0596
vn -0.0101 -0.9363 0.3510
vn -0.1437 -0.9363 0.3204
vn -0.2553 -0.9363 0.2410
vn -0.3025 -0.9341 0.1897
vn 0.6863 0.0000 0.7273
vn 0.9124 0.0000 0.4092
vn 0.9125 0.0000 0.4091
vn 0.9996 0.0000 0.0287
vn 0.7272 0.0000 -0.6864
vn 0.7273 0.0000 -0.6863
vn 0.4090 0.0000 -0.9125
vn 0.0287 0.0000 -0.9996
vn -0.3558 0.0000 -0.9346
vn -0.9125 0.0000 -0.4091
vn -0.9996 0.0000 -0.0288
vn -0.9996 0.0000 -0.0287
vn -0.9346 0.0000 0.3558
vn -0.9345 0.0000 0.3559
vn -0.7273 0.0000 0.6863
vn -0.7273 0.0000 0.6864
vn -0.4092 0.0000 0.9124
vn -0.0286 0.0000 0.9996
s 1
f 1/1/1 2/2/2 3/3/3
f 4/4/4 5/5/5 6/6/6
f 7/7/7 8/8/6 6/6/6
f 9/9/8 10/10/9 11/11/10
f 12/12/11 13/13/6 8/8/6
f 14/14/6 15/15/6 16/16/12
f 17/17/13 18/18/13 19/19/14
f 20/20/15 21/21/15 18/18/13
f 22/22/16 23/23/17 24/24/18
f 21/21/15 25/25/19 26/26/20
f 27/27/6 14/14/6 28/28/21
f 29/29/6 30/30/22 31/31/23
f 32/32/24 33/33/6 34/34/6
f 35/35/25 36/36/26 37/37/27
f 34/34/6 29/29/6 38/38/28
f 39/39/29 24/24/18 25/25/19
f 27/27/6 40/40/30 30/30/22
f 41/41/31 42/42/32 23/23/17
f 43/43/33 35/35/25 44/44/34
f 45/45/6 46/46/6 15/15/6
f 47/47/6 45/45/6 14/14/6
f 47/47/6 27/27/6 29/29/6
f 48/48/35 3/3/3 37/37/27
f 13/13/6 46/46/6 45/45/6
f 8/8/6 45/45/6 47/47/6
f 33/33/6 6/6/6 47/47/6
f 49/49/36 50/50/37 51/51/38
f 10/10/9 52/52/39 53/53/40
f 54/54/41 11/11/10 55/55/42
f 56/56/43 55/55/42 50/50/37
f 57/57/44 51/51/38 2/2/2
f 58/58/45 59/59/46 30/30/22
f 60/60/47 61/61/48 62/62/49
f 63/63/50 60/60/47 64/64/51
f 50/50/37 55/55/42 65/65/52
f 66/66/53 67/67/54 68/68/55
f 69/69/56 68/68/55 5/5/5
f 44/44/34 37/37/27 70/70/57
f 71/71/58 70/70/57 72/72/59
f 73/73/60 72/72/59 38/38/28
f 25/25/19 24/24/18 74/74/61
f 75/75/62 74/74/61 76/76/63
f 77/77/64 76/76/63 28/28/21
f 51/51/38 78/78/65 79/79/66
f 78/78/65 80/80/67 81/81/68
f 80/80/67 82/82/69 32/32/24
f 42/42/32 83/83/70 84/84/71
f 85/85/72 58/58/45 86/86/73
f 58/58/45 30/30/22 40/40/30
f 11/11/10 87/87/74 65/65/52
f 87/87/74 88/88/75 68/68/55
f 88/88/75 7/7/7 5/5/5
f 24/24/18 23/23/17 84/84/71
f 74/74/61 89/89/76 86/86/73
f 76/76/63 86/86/73 40/40/30
f 90/90/77 91/91/78 81/81/68
f 91/91/78 92/92/79 79/79/66
f 93/93/80 3/3/3 2/2/2
f 37/37/27 3/3/3 93/93/80
f 70/70/57 92/92/79 91/91/78
f 72/72/59 91/91/78 90/90/77
f 51/51/38 50/50/37 66/66/53
f 78/78/65 66/66/53 69/69/56
f 80/80/67 69/69/56 4/4/4
f 44/44/34 71/71/58 60/60/47
f 71/71/58 94/94/81 61/61/48
f 73/73/60 31/31/23 30/30/22
f 10/10/9 95/95/82 87/87/74
f 95/95/82 96/96/83 88/88/75
f 96/96/83 12/12/11 7/7/7
f 82/82/69 4/4/4 33/33/6
f 48/48/35 1/1/1 3/3/3
f 33/33/6 4/4/4 6/6/6
f 5/5/5 7/7/7 6/6/6
f 54/54/41 9/9/8 11/11/10
f 7/7/7 12/12/11 8/8/6
f 28/28/21 14/14/6 16/16/12
f 97/97/84 17/17/13 19/19/14
f 17/17/13 20/20/15 18/18/13
f 39/39/29 22/22/16 24/24/18
f 25/25/19 21/21/15 20/20/15
f 25/25/19 98/98/85 26/26/20
f 98/98/85 25/25/19 75/75/62
f 25/25/19 20/20/15 99/99/86
f 40/40/30 27/27/6 28/28/21
f 38/38/28 29/29/6 31/31/23
f 90/90/77 32/32/24 34/34/6
f 44/44/34 35/35/25 37/37/27
f 90/90/77 34/34/6 38/38/28
f 99/99/86 39/39/29 25/25/19
f 29/29/6 27/27/6 30/30/22
f 22/22/16 41/41/31 23/23/17
f 63/63/50 43/43/33 44/44/34
f 14/14/6 45/45/6 15/15/6
f 27/27/6 47/47/6 14/14/6
f 34/34/6 47/47/6 29/29/6
f 36/36/26 48/48/35 37/37/27
f 8/8/6 13/13/6 45/45/6
f 6/6/6 8/8/6 47/47/6
f 34/34/6 33/33/6 47/47/6
f 57/57/44 49/49/36 51/51/38
f 97/97/84 10/10/9 9/9/8
f 10/10/9 53/53/40 95/95/82
f 10/10/9 19/19/14 52/52/39
f 19/19/14 10/10/9 97/97/84
f 56/56/43 54/54/41 55/55/42
f 49/49/36 56/56/43 50/50/37
f 1/1/1 57/57/44 2/2/2
f 64/64/51 60/60/47 62/62/49
f 100/100/87 63/63/50 64/64/51
f 66/66/53 50/50/37 65/65/52
f 69/69/56 66/66/53 68/68/55
f 4/4/4 69/69/56 5/5/5
f 71/71/58 44/44/34 70/70/57
f 94/94/81 71/71/58 72/72/59
f 31/31/23 73/73/60 38/38/28
f 75/75/62 25/25/19 74/74/61
f 101/101/88 75/75/62 76/76/63
f 16/16/12 77/77/64 28/28/21
f 2/2/2 51/51/38 79/79/66
f 79/79/66 78/78/65 81/81/68
f 81/81/68 80/80/67 32/32/24
f 23/23/17 42/42/32 84/84/71
f 89/89/76 85/85/72 86/86/73
f 86/86/73 58/58/45 40/40/30
f 55/55/42 11/11/10 65/65/52
f 67/67/54 87/87/74 68/68/55
f 68/68/55 88/88/75 5/5/5
f 74/74/61 24/24/18 84/84/71
f 76/76/63 74/74/61 86/86/73
f 28/28/21 76/76/63 40/40/30
f 32/32/24 90/90/77 81/81/68
f 81/81/68 91/91/78 79/79/66
f 79/79/66 93/93/80 2/2/2
f 70/70/57 37/37/27 93/93/80
f 72/72/59 70/70/57 91/91/78
f 38/38/28 72/72/59 90/90/77
f 78/78/65 51/51/38 66/66/53
f 80/80/67 78/78/65 69/69/56
f 82/82/69 80/80/67 4/4/4
f 63/63/50 44/44/34 60/60/47
f 60/60/47 71/71/58 61/61/48
f 59/59/46 73/73/60 30/30/22
f 11/11/10 10/10/9 87/87/74
f 87/87/74 95/95/82 88/88/75
f 88/88/75 96/96/83 7/7/7
f 32/32/24 82/82/69 33/33/6
f 102/102/89 103/103/90 104/104/91
f 105/105/92 106/106/93 103/103/90
f 107/107/94 108/108/95 106/106/93
f 109/109/96 110/110/97 108/108/95
f 111/111/98 112/112/99 110/110/97
f 111/111/98 113/113/100 114/114/101
f 113/113/100 115/115/102 116/116/103
f 117/117/104 118/118/105 116/116/103
f 117/117/104 119/119/106 120/120/107
f 121/121/108 122/122/109 120/120/107
f 123/123/110 124/124/111 122/122/109
f 125/125/112 126/126/113 124/124/111
f 125/125/112 127/127/114 128/128/115
f 129/129/116 130/130/117 128/128/115
f 131/131/118 132/132/119 130/130/117
f 131/131/118 133/133/120 104/104/91
f 103/103/90 134/134/121 135/135/122
f 103/103/90 106/106/93 136/136/123
f 106/106/93 108/108/95 137/137/124
f 110/110/97 138/138/125 137/137/124
f 110/110/97 112/112/99 139/139/126
f 112/112/99 114/114/101 140/140/127
f 116/116/103 141/141/128 140/140/127
f 118/118/105 142/142/129 141/141/128
f 120/120/107 143/143/130 142/142/129
f 122/122/109 144/144/131 143/143/130
f 124/124/111 145/145/132 144/144/131
f 124/124/111 126/126/113 146/146/133
f 132/132/119 147/147/134 148/148/135
f 104/104/91 135/135/122 147/147/134
f 149/149/136 150/150/137 126/126/113
f 128/128/115 130/130/117 148/148/135
f 133/133/120 102/102/89 104/104/91
f 102/102/89 105/105/92 103/103/90
f 105/105/92 107/107/94 106/106/93
f 107/107/94 109/109/96 108/108/95
f 109/109/96 111/111/98 110/110/97
f 112/112/99 111/111/98 114/114/101
f 114/114/101 113/113/100 116/116/103
f 115/115/102 117/117/104 116/116/103
f 118/118/105 117/117/104 120/120/107
f 119/119/106 121/121/108 120/120/107
f 121/121/108 123/123/110 122/122/109
f 123/123/110 125/125/112 124/124/111
f 126/126/113 125/125/112 128/128/115
f 127/127/114 129/129/116 128/128/115
f 129/129/116 131/131/118 130/130/117
f 132/132/119 131/131/118 104/104/91
f 104/104/91 103/103/90 135/135/122
f 134/134/121 103/103/90 136/136/123
f 136/136/123 106/106/93 137/137/124
f 108/108/95 110/110/97 137/137/124
f 138/138/125 110/110/97 139/139/126
f 139/139/126 112/112/99 140/140/127
f 114/114/101 116/116/103 140/140/127
f 116/116/103 118/118/105 141/141/128
f 118/118/105 120/120/107 142/142/129
f 120/120/107 122/122/109 143/143/130
f 122/122/109 124/124/111 144/144/131
f 145/145/132 124/124/111 146/146/133
f 130/130/117 132/132/119 148/148/135
f 132/132/119 104/104/91 147/147/134
f 128/128/115 149/149/136 126/126/113
f 149/149/136 128/128/115 148/148/135
f 151/151/138 152/152/44 153/153/1
f 154/154/139 155/155/140 152/152/44
f 156/156/43 157/157/141 155/155/140
f 158/158/41 159/159/41 157/157/141
f 160/160/142 161/161/143 159/159/41
f 162/162/144 163/163/14 161/161/143
f 164/164/145 165/165/13 163/163/14
f 166/166/146 167/167/15 165/165/13
f 168/168/86 169/169/86 167/167/15
f 170/170/147 171/171/147 169/169/86
f 172/172/148 173/173/149 171/171/147
f 174/174/150 175/175/151 173/173/149
f 176/176/152 177/177/153 175/175/151
f 178/178/26 179/179/154 177/177/153
f 180/180/155 181/181/35 179/179/154
f 182/182/1 153/153/1 181/181/35
f 182/182/1 151/151/138 153/153/1
f 151/151/138 154/154/139 152/152/44
f 154/154/139 156/156/43 155/155/140
f 156/156/43 158/158/41 157/157/141
f 158/158/41 160/160/142 159/159/41
f 160/160/142 162/162/144 161/161/143
f 162/162/144 164/164/145 163/163/14
f 164/164/145 166/166/146 165/165/13
f 166/166/146 168/168/86 167/167/15
f 168/168/86 170/170/147 169/169/86
f 170/170/147 172/172/148 171/171/147
f 172/172/148 174/174/150 173/173/149
f 174/174/150 176/176/152 175/175/151
f 176/176/152 178/178/26 177/177/153
f 178/178/26 180/180/155 179/179/154
f 180/180/155 182/182/1 181/181/35
