# Blender v2.79 (sub 0) OBJ File: ''
# www.blender.org
o Mesh384_Mesh384_WoodFloor
v -165.364807 355.863129 -320.974976
v -208.974594 355.862946 104.322220
v -165.364807 355.862946 104.322220
v -208.974594 355.863129 -320.974976
v -410.697876 355.862946 104.322128
v -410.697876 355.863129 -320.975098
v 249.532501 2.543968 -517.823608
v -410.697876 2.543968 -517.823792
v -410.697998 2.543638 495.024780
v 249.532501 2.543638 495.024933
v 249.532608 179.203491 -320.933960
v 249.532608 179.203522 -364.543640
v 52.684097 179.203522 -364.543640
v 249.532608 179.203583 -517.823608
v 52.684097 179.203491 -320.933960
v 52.684097 179.203583 -517.823608
v -208.974594 355.863129 -364.543579
v -410.697876 355.863129 -364.543671
v -410.697876 355.863129 -320.975098
v -208.974594 355.863129 -320.974976
v -165.364807 355.863129 -320.974976
v -208.974594 355.863190 -517.823486
v -165.364807 355.863129 -364.543671
v -410.697876 355.863190 -517.823486
v -165.364807 355.863190 -517.823486
v 246.552109 392.537720 -385.435394
v 250.292389 392.537872 -475.046356
v 250.292389 392.537720 -385.435394
v 246.552109 502.923187 -475.046295
v 250.292389 502.923126 -385.435333
v 250.292389 502.923187 -475.046295
v 246.552109 392.537872 -475.046356
v 246.552109 502.923126 -385.435333
v -175.669800 472.776093 -328.358002
v -175.669800 491.499298 -328.358002
v -175.669800 491.499298 -328.358002
v -175.669800 486.581299 -328.358002
vt 0.875243 -0.205772
vt -0.521919 -0.062508
vt -0.521919 -0.205772
vt 0.875243 -0.062508
vt -0.521919 0.600182
vt 0.875243 0.600182
vt -0.709711 1.709077
vt -0.709711 -0.712800
vt 1.709074 -0.712799
vt 1.709073 1.709077
vt 0.000100 0.000100
vt 0.221549 0.000100
vt 0.221549 0.999691
vt 0.999900 0.000100
vt 0.000100 0.999691
vt 0.999900 0.999691
vt 1.018372 -0.062508
vt 1.018373 0.600182
vt 0.875243 0.600182
vt 0.875243 -0.062508
vt 0.875243 -0.205772
vt 1.521919 -0.062508
vt 1.018372 -0.205772
vt 1.521919 0.600182
vt 1.521919 -0.205772
vt 0.000000 0.000000
vt 0.000000 0.000000
vt 0.000000 0.000000
vt 0.000000 0.000000
vt 0.000000 0.000000
vt 0.000000 0.000000
vt 0.000000 0.000000
vt 0.000000 0.000000
vt 0.464211 0.821296
vt 0.470831 0.890144
vt 0.470831 0.890144
vt 0.469338 0.872059
vn 0.0000 1.0000 0.0000
vn 0.0000 -1.0000 -0.0000
vn 1.0000 0.0000 0.0000
vn 0.0000 0.0000 -1.0000
s 1
f 1/1/1 2/2/1 3/3/1
f 4/4/1 5/5/1 2/2/1
f 4/4/1 2/2/1 1/1/1
f 6/6/1 5/5/1 4/4/1
f 7/7/1 8/8/1 9/9/1
f 10/10/1 7/7/1 9/9/1
f 11/11/1 12/12/1 13/13/1
f 13/13/1 12/12/1 14/14/1
f 15/15/1 11/11/1 13/13/1
f 16/16/1 13/13/1 14/14/1
f 17/17/1 18/18/1 19/19/1
f 17/17/1 20/20/1 21/21/1
f 22/22/1 17/17/1 23/23/1
f 24/24/1 18/18/1 17/17/1
f 20/20/1 17/17/1 19/19/1
f 23/23/1 17/17/1 21/21/1
f 25/25/1 22/22/1 23/23/1
f 22/22/1 24/24/1 17/17/1
f 26/26/2 27/27/2 28/28/2
f 29/29/1 30/30/1 31/31/1
f 32/32/2 27/27/2 26/26/2
f 33/33/1 30/30/1 29/29/1
f 34/34/3 35/35/4 36/36/4
f 37/37/4 34/34/3 36/36/4
