# Blender v2.79 (sub 0) OBJ File: 'casa3.blend'
# www.blender.org
o Cube.011_Cube.003
v 1.465603 1.159565 1.433540
v 1.465603 1.811916 1.433540
v 1.465603 1.159565 0.781189
v 1.465603 1.811916 0.781189
v 1.997467 1.159565 1.433540
v 1.997467 1.811916 1.433540
v 1.997467 1.159565 0.781189
v 1.997467 1.811916 0.781189
v 1.465603 1.153326 1.439779
v 1.465603 1.818155 1.439779
v 1.465603 1.818155 0.774950
v 1.465603 1.153326 0.774950
v 1.997467 1.818155 0.774950
v 1.997467 1.153326 0.774950
v 1.997467 1.818155 1.439779
v 1.997467 1.153326 1.439779
vn 0.0000 0.0000 1.0000
vn 0.0000 0.0000 -1.0000
vn 0.0000 1.0000 0.0000
vn 0.0000 -1.0000 0.0000
vn -1.0000 0.0000 0.0000
vn 1.0000 0.0000 0.0000
s off
f 3//1 7//1 8//1 4//1
f 11//2 13//2 14//2 12//2
f 1//3 5//3 7//3 3//3
f 15//1 10//1 9//1 16//1
f 9//4 12//4 14//4 16//4
f 15//3 13//3 11//3 10//3
f 2//5 1//5 9//5 10//5
f 4//5 2//5 10//5 11//5
f 3//5 4//5 11//5 12//5
f 1//5 3//5 12//5 9//5
f 8//6 7//6 14//6 13//6
f 6//6 8//6 13//6 15//6
f 5//6 6//6 15//6 16//6
f 7//6 5//6 16//6 14//6
f 4//4 8//4 6//4 2//4
f 2//2 6//2 5//2 1//2
o Cube.002_Cube
v 1.465603 1.159565 2.287681
v 1.465603 1.811916 2.287681
v 1.465603 1.159565 1.635330
v 1.465603 1.811916 1.635330
v 1.997467 1.159565 2.287681
v 1.997467 1.811916 2.287681
v 1.997467 1.159565 1.635330
v 1.997467 1.811916 1.635330
v 1.465603 1.153326 2.293920
v 1.465603 1.818155 2.293920
v 1.465603 1.818155 1.629091
v 1.465603 1.153326 1.629091
v 1.997467 1.818155 1.629091
v 1.997467 1.153326 1.629091
v 1.997467 1.818155 2.293920
v 1.997467 1.153326 2.293920
vn 0.0000 0.0000 1.0000
vn 0.0000 0.0000 -1.0000
vn 0.0000 1.0000 0.0000
vn 0.0000 -1.0000 0.0000
vn -1.0000 0.0000 0.0000
vn 1.0000 0.0000 0.0000
s off
f 19//7 23//7 24//7 20//7
f 27//8 29//8 30//8 28//8
f 17//9 21//9 23//9 19//9
f 31//7 26//7 25//7 32//7
f 25//10 28//10 30//10 32//10
f 31//9 29//9 27//9 26//9
f 18//11 17//11 25//11 26//11
f 20//11 18//11 26//11 27//11
f 19//11 20//11 27//11 28//11
f 17//11 19//11 28//11 25//11
f 24//12 23//12 30//12 29//12
f 22//12 24//12 29//12 31//12
f 21//12 22//12 31//12 32//12
f 23//12 21//12 32//12 30//12
f 20//10 24//10 22//10 18//10
f 18//8 22//8 21//8 17//8
