# Blender v2.79 (sub 0) OBJ File: 'casa3.blend'
# www.blender.org
o Cube.013_Cube.004
v -2.000000 0.000001 2.500000
v -2.000000 2.700001 2.500000
v 1.994784 0.000001 2.500000
v 1.995526 0.000001 2.499934
v 1.996253 0.000001 2.499736
v 1.996951 0.000001 2.499411
v 1.997604 0.000001 2.498965
v 1.998200 0.000001 2.498408
v 1.998726 0.000001 2.497750
v 1.999172 0.000001 2.497005
v 1.994784 2.700001 2.500000
v 1.999172 2.700001 2.497005
v 1.998726 2.700001 2.497750
v 1.998200 2.700001 2.498408
v 1.997604 2.700001 2.498965
v 1.996951 2.700001 2.499411
v 1.996253 2.700001 2.499736
v 1.995526 2.700001 2.499934
vt 0.000000 0.000000
vt 0.000000 0.000000
vt 0.000000 0.000000
vt 0.000000 0.000000
vt 0.000000 0.000000
vt 0.000000 0.000000
vt 0.000000 0.000000
vt 0.000000 0.000000
vt 0.000000 0.000000
vt 0.000000 0.000000
vt 0.000000 0.000000
vt 0.000000 0.000000
vt 0.000000 0.000000
vt 0.000000 0.000000
vt 0.000000 0.000000
vt 0.000000 0.000000
vt 0.000000 0.000000
vt 0.000000 0.000000
vn 0.0000 0.0000 -1.0000
vn -0.8579 0.0000 -0.5138
vn -0.8213 0.0000 -0.5705
vn -0.7339 0.0000 -0.6792
vn -0.6253 0.0000 -0.7803
vn -0.4947 0.0000 -0.8690
vn -0.3436 0.0000 -0.9391
vn -0.1765 0.0000 -0.9843
vn -0.0446 0.0000 -0.9990
s off
f 11/1/1 3/2/1 1/3/1 2/4/1
s 1
f 12/5/2 10/6/2 9/7/3 13/8/3
f 13/8/3 9/7/3 8/9/4 14/10/4
f 14/10/4 8/9/4 7/11/5 15/12/5
f 15/12/5 7/11/5 6/13/6 16/14/6
f 16/14/6 6/13/6 5/15/7 17/16/7
f 17/16/7 5/15/7 4/17/8 18/18/8
f 18/18/8 4/17/8 3/2/9 11/1/9
